ply
format ascii 1.0
comment Created by Blender 2.80 (sub 75) - www.blender.org, source file: ''
element vertex 26
property float x
property float y
property float z
element face 40
property list uchar uint vertex_indices
end_header
0.276388 -0.850649 0.447220
0.688189 -0.499997 0.525736
0.162456 -0.499995 1.194688
-0.723607 -0.525725 0.447220
-0.262869 -0.809012 0.525738
-0.425323 -0.309011 1.194688
-0.723607 0.525725 0.447220
-0.850648 0.000000 0.525736
-0.425323 0.309011 1.194688
0.276388 0.850649 0.447220
-0.262869 0.809012 0.525738
0.162456 0.499995 1.194688
0.894426 0.000000 0.447216
0.688189 0.499997 0.525736
0.525730 0.000000 1.194686
0.000000 0.000000 1.616912
0.951058 0.309013 0.000000
0.587786 0.809017 0.000000
0.000000 1.000000 0.000000
-0.587786 0.809017 0.000000
-0.951058 0.309013 0.000000
-0.951058 -0.309013 0.000000
-0.587786 -0.809017 0.000000
0.000000 -1.000000 0.000000
0.587786 -0.809017 0.000000
0.951058 -0.309013 0.000000
3 0 1 2
3 3 4 5
3 6 7 8
3 9 10 11
3 12 13 14
3 14 11 15
3 14 13 11
3 13 9 11
3 11 8 15
3 11 10 8
3 10 6 8
3 8 5 15
3 8 7 5
3 7 3 5
3 5 2 15
3 5 4 2
3 4 0 2
3 2 14 15
3 2 1 14
3 1 12 14
3 16 13 12
3 16 17 13
3 17 9 13
3 18 10 9
3 18 19 10
3 19 6 10
3 20 7 6
3 20 21 7
3 21 3 7
3 22 4 3
3 22 23 4
3 23 0 4
3 24 1 0
3 24 25 1
3 25 12 1
3 17 18 9
3 19 20 6
3 21 22 3
3 23 24 0
3 25 16 12
