ply
format ascii 1.0
comment Created by Blender 2.80 (sub 75) - www.blender.org, source file: ''
element vertex 26
property float x
property float y
property float z
element face 40
property list uchar uint vertex_indices
end_header
0.242273852229118347 -0.74529874324798584 0.405363410711288452
0.587957561016082764 -0.427360415458679199 0.466613560914993286
0.136792927980422974 -0.391077876091003418 1.0712815523147583
-0.635541915893554688 -0.463833242654800415 0.405825406312942505
-0.221329987049102783 -0.690974831581115723 0.468374401330947876
-0.334069013595581055 -0.243601873517036438 1.08203554153442383
-0.634943187236785889 0.462461173534393311 0.406872659921646118
-0.726608037948608398 0.00320204906165599823 0.470384210348129272
-0.337309062480926514 0.248098552227020264 1.07249224185943604
0.242878720164299011 0.74596172571182251 0.40372765064239502
-0.226728439331054688 0.690227150917053223 0.468134373426437378
0.130801364779472351 0.388914376497268677 1.07684755325317383
0.78362041711807251 -0.00176506279967725277 0.402574628591537476
0.588424980640411377 0.424575686454772949 0.467666923999786377
0.410872906446456909 -0.000880209961906075478 1.07003223896026611
-0.00741840386763215065 -0.000415465474361553788 1.74743914604187012
0.951057970523834229 0.309013009071350098 0
0.587786018848419189 0.809017002582550049 0
0 1 0
-0.587786018848419189 0.809017002582550049 0
-0.951057970523834229 0.309013009071350098 0
-0.951057970523834229 -0.309013009071350098 0
-0.587786018848419189 -0.809017002582550049 0
0 -1 0
0.587786018848419189 -0.809017002582550049 0
0.951057970523834229 -0.309013009071350098 0
3 0 1 2
3 3 4 5
3 6 7 8
3 9 10 11
3 12 13 14
3 14 11 15
3 14 13 11
3 13 9 11
3 11 8 15
3 11 10 8
3 10 6 8
3 8 5 15
3 8 7 5
3 7 3 5
3 5 2 15
3 5 4 2
3 4 0 2
3 2 14 15
3 2 1 14
3 1 12 14
3 16 13 12
3 16 17 13
3 17 9 13
3 18 10 9
3 18 19 10
3 19 6 10
3 20 7 6
3 20 21 7
3 21 3 7
3 22 4 3
3 22 23 4
3 23 0 4
3 24 1 0
3 24 25 1
3 25 12 1
3 17 18 9
3 19 20 6
3 21 22 3
3 23 24 0
3 25 16 12
